<svg width="1948" height="1570" viewBox="0 0 1948 1570" xmlns="http://www.w3.org/2000/svg"><title>logo-red</title><g fill="none" fill-rule="evenodd"><path d="M1926.965 1359.288v129.834h-87.42l-13.45 80.726H1720.52l13.449-80.726h-73.298l-13.45 80.726h-105.576l13.45-80.726h-53.125v-129.834h75.316l9.414-52.471h-63.884v-129.834h86.075l13.45-78.035h105.576l-13.45 78.035h73.299l13.449-78.035h105.576l-13.45 78.035h54.47v129.834h-76.66l-9.415 52.471h65.229zm-238.724-57.853l-10.759 63.235h82.713l10.759-63.235h-82.713z" fill="#F05"/><path d="M0 415.323L173.678 0h136.588l173.679 415.323h-149.54l-21.784-55.376H168.38l-21.195 55.376H0zm203.115-153.169h75.36l-37.68-100.149-37.68 100.15zm366.226 153.169V2.946h157.783c163.67 0 245.504 80.708 245.504 202.654v1.178c0 121.946-83.6 208.545-250.214 208.545H569.34zm160.726-292.199h-22.96v172.02h22.96c62.996 0 103.619-25.92 103.619-85.42v-1.179c0-59.5-40.623-85.42-103.619-85.42zm268.931 292.199L1172.677 0h136.588l173.678 415.323h-149.54l-21.783-55.376h-144.242l-21.194 55.376H998.998zm203.116-153.169h75.359l-37.68-100.149-37.68 100.15zm366.226 153.169V2.946h185.453c109.506 0 184.276 48.896 184.276 146.688v1.178c0 99.56-75.948 152.58-187.22 152.58h-44.744v111.931H1568.34zm137.765-210.313h37.09c35.325 0 58.875-15.906 58.875-45.361v-1.178c0-30.045-21.784-45.362-58.286-45.362h-37.679v91.901zM3.969 857.287H208.85V747.712H3.97v109.575zM393.06 988.069h137.765V692.336h121.28V575.692H271.78v116.644h121.28v295.733zm366.473 0h137.765V575.692H759.534v412.377zm411.71 2.946h131.879l167.202-415.323H1318.43l-80.069 231.52-80.068-231.52h-154.25l167.202 415.323zm397.924-2.946h354.422V874.96h-219.012v-44.772h201.35v-99.56h-201.35v-41.827h216.068V575.692h-351.478v412.377zM9.856 1560.816h331.461v-117.822H147.621v-294.556H9.856v412.378zm426.677 0l173.678-415.323H746.8l173.679 415.323h-149.54l-21.784-55.377H604.913l-21.195 55.377H436.533zm189.669-153.169h75.359l-37.68-100.149-37.679 100.149zm379.672 153.169v-412.378h230.786c57.108 0 93.021 12.96 117.16 37.114 14.718 14.728 25.316 35.936 25.316 64.213v1.179c0 48.896-29.437 78.94-73.593 94.257 52.987 15.317 87.134 43.594 87.134 100.15v1.177c0 65.98-54.164 114.288-158.372 114.288h-228.43zm237.851-278.65v-1.178c0-18.262-14.718-28.277-44.155-28.277h-59.463v57.733h60.052c29.437 0 43.566-10.015 43.566-28.278zm10.598 143.154c0-17.673-14.719-30.044-44.745-30.044h-69.471v61.267h68.883c30.025 0 45.333-12.371 45.333-30.044v-1.179z" fill="#000"/></g></svg>